<svg width="185" height="44" viewBox="0 0 185 44" fill="none" xmlns="http://www.w3.org/2000/svg">
<g clip-path="url(#clip0_615_841)">
<rect width="185" height="44" fill="white"/>
<path d="M0 0.0766602V7.94669L6.43111 14.3778C8.0716 13.2721 9.92102 12.4511 11.9082 11.9849L0 0.0766602ZM31.4801 0.0766602L19.5719 11.9849C21.56 12.4512 23.4085 13.2717 25.049 14.3778L31.4801 7.94669V0.0766602ZM3.66787 18.0651C2.30636 19.6901 1.26915 21.5966 0.650693 23.6868H30.8294C30.2119 21.5966 29.1738 19.6901 27.8122 18.0651H3.66787Z" fill="#FFBF1A"/>
<path d="M15.74 12.4434C11.326 12.4434 7.36204 14.255 4.50901 17.1622H26.9693C24.1172 14.2552 20.1532 12.4434 15.74 12.4434ZM0.416161 24.5896C0.14711 25.7438 0 26.9452 0 28.1834C0 36.9035 7.01936 43.9235 15.74 43.9235C24.4598 43.9235 31.4801 36.9035 31.4801 28.1834C31.4801 26.9452 31.3312 25.7439 31.0622 24.5896H25.1954C25.6188 25.7065 25.8584 26.9147 25.8584 28.1834C25.8584 33.7892 21.3459 38.3018 15.74 38.3018C10.1342 38.3018 5.62171 33.7892 5.62171 28.1834C5.62171 26.9147 5.8613 25.7066 6.28474 24.5896H0.416161Z" fill="#00A7EF"/>
<path d="M51.017 40.5395C49.5486 40.5395 48.2292 40.2416 47.0162 39.6457C45.8032 39.0499 44.7605 38.2412 43.888 37.241C43.0155 36.2408 42.3558 35.1129 41.8663 33.8148C41.3769 32.5167 41.1641 31.2186 41.1641 29.8779C41.1641 28.4734 41.4194 27.1327 41.9089 25.8559C42.4196 24.579 43.1006 23.4299 43.9944 22.451C44.8882 21.4721 45.9309 20.6847 47.1226 20.0888C48.3356 19.5143 49.6337 19.2163 51.0383 19.2163C52.5066 19.2163 53.826 19.5355 55.039 20.1527C56.252 20.7698 57.2948 21.5785 58.146 22.5999C58.9972 23.6001 59.6782 24.7493 60.1464 26.0261C60.6145 27.303 60.8486 28.6011 60.8486 29.9205C60.8486 31.325 60.5933 32.6657 60.1038 33.9425C59.5931 35.2193 58.9121 36.3472 58.0396 37.3261C57.1671 38.305 56.1243 39.0924 54.9113 39.667C53.7196 40.2416 52.4215 40.5395 51.017 40.5395ZM43.2283 29.8779C43.2283 31.0271 43.4198 32.1124 43.7816 33.1764C44.1646 34.2404 44.6967 35.1768 45.3776 35.9854C46.0586 36.7941 46.8886 37.4538 47.8249 37.9433C48.7612 38.4327 49.8253 38.6668 50.9957 38.6668C52.1874 38.6668 53.2515 38.4114 54.2304 37.9007C55.188 37.39 56.0179 36.709 56.6776 35.879C57.3586 35.0491 57.8693 34.1128 58.2311 33.07C58.5929 32.0273 58.7844 30.9632 58.7844 29.8779C58.7844 28.7288 58.5929 27.6434 58.2098 26.5794C57.8268 25.5154 57.2948 24.6003 56.5925 23.7917C55.9115 22.983 55.0816 22.3446 54.1452 21.8551C53.1876 21.3657 52.1449 21.1316 51.017 21.1316C49.8253 21.1316 48.7612 21.3869 47.7823 21.8764C46.8247 22.3871 45.9948 23.0468 45.3351 23.8768C44.6541 24.7067 44.1434 25.6431 43.7816 26.6858C43.4198 27.7286 43.2283 28.7926 43.2283 29.8779Z" fill="#00A7EF"/>
<path d="M65.6875 40.3902V19.4075H67.7517V31.6013L79.3284 19.3862H81.6054L73.0293 28.622L82.0523 40.3902H79.7753L71.7312 29.835L67.773 33.9421V40.3902H65.6875Z" fill="#00A7EF"/>
<path d="M92.1286 19.3862H93.8736L102.599 40.3902H100.407L97.6828 33.8145H88.2342L85.5316 40.3902H83.3184L92.1286 19.3862ZM97.2146 32.1971L92.9798 21.8122L88.6811 32.1971H97.2146Z" fill="#00A7EF"/>
<path d="M103.912 19.3862L110.785 30.6862L117.702 19.3862H119.957L111.828 32.5802V40.3902H109.764V32.5163L101.656 19.3862H103.912Z" fill="#00A7EF"/>
<path d="M121.156 29.7288C121.156 28.4733 121.369 27.2177 121.816 25.9622C122.263 24.7066 122.901 23.6 123.753 22.5998C124.604 21.6209 125.647 20.8123 126.881 20.1951C128.115 19.578 129.541 19.2588 131.116 19.2588C132.988 19.2588 134.585 19.6844 135.925 20.5356C137.266 21.3868 138.245 22.4934 138.862 23.8554L137.245 24.8556C136.904 24.1746 136.5 23.5787 136.01 23.1106C135.521 22.6424 135.01 22.2593 134.457 21.9614C133.904 21.6635 133.329 21.4507 132.733 21.323C132.137 21.1953 131.563 21.1315 130.988 21.1315C129.733 21.1315 128.605 21.3868 127.647 21.8976C126.689 22.4083 125.859 23.0893 125.2 23.9192C124.54 24.7492 124.051 25.6855 123.71 26.707C123.37 27.7497 123.199 28.7925 123.199 29.8565C123.199 31.0269 123.391 32.1335 123.795 33.1976C124.2 34.2616 124.753 35.1979 125.455 36.0279C126.157 36.8366 126.987 37.4963 127.945 37.9857C128.903 38.4752 129.945 38.7092 131.073 38.7092C131.669 38.7092 132.265 38.6454 132.903 38.4964C133.521 38.3475 134.116 38.1134 134.712 37.7942C135.308 37.475 135.84 37.0706 136.33 36.5812C136.819 36.0917 137.245 35.5172 137.564 34.8149L139.288 35.7087C138.947 36.4961 138.479 37.1983 137.862 37.7942C137.245 38.39 136.564 38.9008 135.819 39.3264C135.074 39.7307 134.265 40.0499 133.435 40.2627C132.605 40.4755 131.775 40.5819 130.967 40.5819C129.52 40.5819 128.2 40.2627 127.009 39.6456C125.817 39.0285 124.774 38.1985 123.902 37.177C123.029 36.1556 122.348 35.0064 121.88 33.7083C121.391 32.3889 121.156 31.0908 121.156 29.7288Z" fill="#005893"/>
<path d="M162.343 40.3905V23.1319L154.682 36.4748H153.469L145.808 23.1319V40.3905H143.744V19.3865H145.872L154.065 33.7722L162.322 19.3865H164.429V40.3905H162.343Z" fill="#005893"/>
<path d="M182.958 23.3233C182.362 22.6423 181.575 22.1103 180.596 21.706C179.617 21.3016 178.489 21.0888 177.213 21.0888C175.361 21.0888 173.999 21.4293 173.148 22.1316C172.297 22.8338 171.871 23.7915 171.871 24.9832C171.871 25.6216 171.978 26.1323 172.212 26.5367C172.446 26.941 172.786 27.2815 173.254 27.5794C173.723 27.8773 174.34 28.1327 175.085 28.3455C175.829 28.5583 176.702 28.7711 177.702 29.0052C178.83 29.2393 179.83 29.5159 180.745 29.8139C181.639 30.1118 182.405 30.4736 183.043 30.9205C183.682 31.3674 184.15 31.8994 184.491 32.5378C184.831 33.1762 185.001 33.9636 185.001 34.8999C185.001 35.8576 184.81 36.7088 184.448 37.411C184.065 38.1133 183.554 38.7092 182.873 39.1773C182.192 39.6455 181.405 40.0073 180.469 40.2201C179.532 40.4542 178.532 40.5606 177.425 40.5606C174.169 40.5606 171.36 39.5391 168.998 37.5175L170.041 35.8363C170.424 36.2406 170.871 36.6024 171.382 36.9642C171.914 37.3259 172.488 37.6239 173.127 37.9005C173.765 38.1771 174.446 38.3687 175.191 38.5176C175.914 38.6666 176.681 38.7304 177.489 38.7304C179.17 38.7304 180.468 38.4325 181.405 37.8367C182.341 37.2408 182.809 36.3257 182.809 35.0915C182.809 34.4318 182.682 33.8997 182.405 33.4529C182.128 33.006 181.745 32.6229 181.213 32.3037C180.681 31.9845 180.022 31.7078 179.234 31.4525C178.447 31.2184 177.532 30.9843 176.489 30.7502C175.382 30.4948 174.425 30.2182 173.595 29.9416C172.765 29.6649 172.063 29.3244 171.488 28.8988C170.914 28.4945 170.488 27.9837 170.211 27.4092C169.935 26.8346 169.786 26.111 169.786 25.2598C169.786 24.3022 169.977 23.4297 170.339 22.6636C170.701 21.8975 171.211 21.2803 171.892 20.7696C172.573 20.2589 173.361 19.8758 174.255 19.6205C175.17 19.3438 176.17 19.2161 177.276 19.2161C178.681 19.2161 179.915 19.4289 181.022 19.8545C182.107 20.2802 183.107 20.876 184.001 21.6421L182.958 23.3233Z" fill="#005893"/>
</g>
<defs>
<clipPath id="clip0_615_841">
<rect width="185" height="44" fill="white"/>
</clipPath>
</defs>
</svg>
