<svg width="1918" height="653" viewBox="0 0 1918 653" fill="none" xmlns="http://www.w3.org/2000/svg">
  <path d="M114.67 16.7627L108.704 12.6563L102.942 17.044L-6.05823 100.044L-10 103.046V108V653V663H0H1918H1928V653V95V89.3748L1923.19 86.4538L1844.19 38.4538L1839.11 35.3666L1833.97 38.3558L1740.48 92.7336L1675.21 62.4299L1670.02 60.0207L1665.32 63.2729L1468.88 199H1349.94L1147.41 68.5922L1142.8 65.6189L1137.81 67.9204L1103.8 83.6193L1021.41 30.5914L1016.03 27.1273L1010.63 30.5634L807.19 160.026L724.633 103.738L722.085 102H719H344.114L233.046 52.8552L229.326 51.2089L225.513 52.6278L187.386 66.8143L114.67 16.7627Z" fill="#003F6A" stroke="white" stroke-width="20" />
</svg>
