<svg width="150" height="45" viewBox="0 0 150 45" fill="none" xmlns="http://www.w3.org/2000/svg">
  <path d="M29.7065 0.000469861L24.7246 4.72266L29.444 9.70751L34.426 4.98532L29.7065 0.000469861Z" fill="white" />
  <path d="M35.1895 5.66531L30.4453 10.1621L34.9395 14.909L39.6836 10.4122L35.1895 5.66531Z" fill="white" />
  <path d="M24.0762 5.66726L19.332 10.1641L23.8262 14.911L28.5703 10.4142L24.0762 5.66726Z" fill="white" />
  <path d="M18.6134 11.4759L14.3906 15.4785L18.3909 19.7037L22.6136 15.7012L18.6134 11.4759Z" fill="white" />
  <path d="M40.8399 11.4769L36.6172 15.4795L40.6174 19.7047L44.8402 15.7021L40.8399 11.4769Z" fill="white" />
  <path d="M29.711 11.474L25.4883 15.4766L29.4885 19.7018L33.7113 15.6992L29.711 11.474Z" fill="white" />
  <path d="M46.3193 17.8455L42.9531 21.0361L46.1419 24.4043L49.5081 21.2136L46.3193 17.8455Z" fill="white" />
  <path d="M35.1787 17.8455L31.8125 21.0361L35.0013 24.4043L38.3675 21.2136L35.1787 17.8455Z" fill="white" />
  <path d="M51.9773 24.2753L49.4902 26.6318L51.8454 29.1204L54.3325 26.7638L51.9773 24.2753Z" fill="white" />
  <path d="M57.5866 30.7337L55.9766 32.2598L57.5018 33.8707L59.1118 32.3447L57.5866 30.7337Z" fill="white" />
  <path d="M46.3249 30.7317L44.7148 32.2578L46.24 33.8688L47.8501 32.3427L46.3249 30.7317Z" fill="white" />
  <path d="M35.1803 30.7288L33.5703 32.2549L35.0955 33.8659L36.7055 32.3398L35.1803 30.7288Z" fill="white" />
  <path d="M29.7272 35.7015L28.1172 37.2275L29.6424 38.8385L31.2524 37.3124L29.7272 35.7015Z" fill="white" />
  <path d="M29.7272 40.8899L28.1172 42.416L29.6424 44.027L31.2524 42.5009L29.7272 40.8899Z" fill="white" />
  <path d="M23.9167 30.7278L22.3066 32.2539L23.8318 33.8649L25.4419 32.3388L23.9167 30.7278Z" fill="white" />
  <path d="M12.8757 30.7288L11.2656 32.2549L12.7908 33.8659L14.4009 32.3398L12.8757 30.7288Z" fill="white" />
  <path d="M1.61003 30.7317L0 32.2578L1.5252 33.8688L3.13523 32.3427L1.61003 30.7317Z" fill="white" />
  <path d="M7.2726 36.9449L6.41602 37.7568L7.22746 38.6139L8.08404 37.802L7.2726 36.9449Z" fill="white" />
  <path d="M51.8781 36.9449L51.0215 37.7568L51.8329 38.6139L52.6895 37.802L51.8781 36.9449Z" fill="white" />
  <path d="M40.864 24.2753L38.377 26.6318L40.7322 29.1204L43.2192 26.7638L40.864 24.2753Z" fill="white" />
  <path d="M29.5691 24.2753L27.082 26.6318L29.4372 29.1204L31.9243 26.7638L29.5691 24.2753Z" fill="white" />
  <path d="M18.4832 24.2733L15.9961 26.6299L18.3513 29.1184L20.8384 26.7618L18.4832 24.2733Z" fill="white" />
  <path d="M7.25075 24.2752L4.76367 26.6318L7.11888 29.1204L9.60596 26.7638L7.25075 24.2752Z" fill="white" />
  <path d="M24.1201 17.8455L20.7539 21.0361L23.9427 24.4043L27.3089 21.2136L24.1201 17.8455Z" fill="white" />
  <path d="M12.8896 17.8425L9.52344 21.0332L12.7122 24.4013L16.0784 21.2107L12.8896 17.8425Z" fill="white" />
  <path d="M149.744 39.2267H110.325V31.7246C110.325 28.1165 111.756 24.6558 114.303 22.102C116.85 19.5481 120.306 18.1096 123.912 18.1023H141.555V17.5021C141.554 16.8082 141.278 16.1429 140.788 15.6522C140.297 15.1615 139.633 14.8853 138.939 14.8843H110.029L120.112 6.43848H138.951C141.881 6.43848 144.692 7.60328 146.764 9.67664C148.836 11.75 150 14.5621 150 17.4942V26.5481H123.912C122.705 26.5528 121.538 26.9804 120.613 27.7565C119.688 28.5326 119.064 29.6082 118.849 30.7967H149.744V39.2267Z" fill="white" />
  <path d="M109.362 6.15039H96.0195L78.8931 19.5753V6.35176H69.7656V39.1479H78.8931V31.1009L109.362 6.15039Z" fill="white" />
  <path d="M83.748 26.8992L94.8289 39.1751L107.058 39.2501L90.4802 21.5293L83.748 26.8992Z" fill="white" />
</svg>
