<svg width="325" height="50" viewBox="0 0 325 50" fill="none" xmlns="http://www.w3.org/2000/svg">
<g clip-path="url(#clip0_1709_841)">
<path d="M33.7336 0.00113598L28.0762 5.36365L33.4355 11.0244L39.093 5.66193L33.7336 0.00113598Z" fill="#005C9A"/>
<path d="M39.9597 6.43561L34.5723 11.5422L39.6758 16.9328L45.0633 11.8262L39.9597 6.43561Z" fill="#005C9A"/>
<path d="M27.3386 6.43701L21.9512 11.5436L27.0547 16.9342L32.4422 11.8276L27.3386 6.43701Z" fill="#005C9A"/>
<path d="M21.1352 13.0345L16.3398 17.5798L20.8825 22.378L25.6779 17.8327L21.1352 13.0345Z" fill="#005C9A"/>
<path d="M46.3754 13.0348L41.5801 17.5801L46.1228 22.3783L50.9181 17.833L46.3754 13.0348Z" fill="#005C9A"/>
<path d="M33.7368 13.032L28.9414 17.5773L33.4841 22.3755L38.2794 17.8302L33.7368 13.032Z" fill="#005C9A"/>
<path d="M52.598 20.2663L48.7754 23.8896L52.3966 27.7144L56.2192 24.0911L52.598 20.2663Z" fill="#005C9A"/>
<path d="M39.9476 20.2669L36.125 23.8902L39.7462 27.7151L43.5688 24.0917L39.9476 20.2669Z" fill="#005C9A"/>
<path d="M59.0235 27.5683L56.1992 30.2444L58.8738 33.0704L61.6981 30.3943L59.0235 27.5683Z" fill="#005C9A"/>
<path d="M65.3928 34.9022L63.5645 36.6352L65.2965 38.4646L67.1248 36.7316L65.3928 34.9022Z" fill="#005C9A"/>
<path d="M52.6037 34.9011L50.7754 36.6341L52.5074 38.4635L54.3358 36.7305L52.6037 34.9011Z" fill="#005C9A"/>
<path d="M39.9475 34.8972L38.1191 36.6302L39.8512 38.4596L41.6795 36.7266L39.9475 34.8972Z" fill="#005C9A"/>
<path d="M33.758 40.5443L31.9297 42.2773L33.6617 44.1068L35.49 42.3737L33.758 40.5443Z" fill="#005C9A"/>
<path d="M33.7561 46.4359L31.9277 48.1689L33.6597 49.9983L35.4881 48.2653L33.7561 46.4359Z" fill="#005C9A"/>
<path d="M27.1584 34.8961L25.3301 36.6291L27.0621 38.4585L28.8904 36.7255L27.1584 34.8961Z" fill="#005C9A"/>
<path d="M14.6194 34.8972L12.791 36.6302L14.523 38.4596L16.3514 36.7266L14.6194 34.8972Z" fill="#005C9A"/>
<path d="M1.8264 34.8991L-0.00195312 36.6321L1.73006 38.4616L3.55841 36.7285L1.8264 34.8991Z" fill="#005C9A"/>
<path d="M8.25594 41.9565L7.2832 42.8785L8.20468 43.8518L9.17742 42.9298L8.25594 41.9565Z" fill="#005C9A"/>
<path d="M58.9102 41.9565L57.9375 42.8785L58.859 43.8518L59.8317 42.9298L58.9102 41.9565Z" fill="#005C9A"/>
<path d="M46.4025 27.5681L43.5781 30.2443L46.2527 33.0702L49.077 30.3941L46.4025 27.5681Z" fill="#005C9A"/>
<path d="M33.5782 27.5676L30.7539 30.2438L33.4285 33.0698L36.2528 30.3936L33.5782 27.5676Z" fill="#005C9A"/>
<path d="M20.9864 27.5652L18.1621 30.2413L20.8367 33.0673L23.661 30.3912L20.9864 27.5652Z" fill="#005C9A"/>
<path d="M8.23253 27.5678L5.4082 30.244L8.08277 33.0699L10.9071 30.3938L8.23253 27.5678Z" fill="#005C9A"/>
<path d="M27.389 20.2668L23.5664 23.8901L27.1876 27.715L31.0102 24.0917L27.389 20.2668Z" fill="#005C9A"/>
<path d="M14.6351 20.2635L10.8125 23.8868L14.4337 27.7117L18.2563 24.0884L14.6351 20.2635Z" fill="#005C9A"/>
<path d="M170.047 44.5476H125.283V36.0282C125.283 31.9309 126.908 28.0009 129.801 25.1007C132.693 22.2005 136.617 20.5671 140.712 20.5587H160.748V19.8772C160.747 19.0891 160.434 18.3336 159.877 17.7764C159.32 17.2191 158.565 16.9055 157.777 16.9044H124.947L136.397 7.31329H157.791C161.118 7.31329 164.31 8.63604 166.663 10.9905C169.016 13.3451 170.338 16.5384 170.338 19.8682V30.1498H140.712C139.342 30.1552 138.016 30.6406 136.966 31.522C135.916 32.4033 135.207 33.6248 134.963 34.9745H170.047V44.5476Z" fill="#005C9A"/>
<path d="M124.19 6.98596H109.039L89.5898 22.2312V7.21464H79.2246V44.4579H89.5898V35.3197L124.19 6.98596Z" fill="#005C9A"/>
<path d="M95.1016 30.5489L107.685 44.4893L121.572 44.5745L102.747 24.4507L95.1016 30.5489Z" fill="#005C9A"/>
<path d="M195.268 30.8986C195.258 30.7807 195.284 30.6624 195.342 30.5595C195.4 30.4565 195.489 30.3736 195.595 30.3216C195.701 30.2696 195.821 30.2509 195.938 30.2681C196.055 30.2852 196.164 30.3374 196.251 30.4177C196.338 30.498 196.398 30.6027 196.425 30.7181C196.451 30.8335 196.442 30.9541 196.399 31.0643C196.356 31.1745 196.28 31.269 196.182 31.3354C196.084 31.4019 195.969 31.4372 195.85 31.4367C195.777 31.4403 195.703 31.4292 195.633 31.404C195.564 31.3788 195.5 31.34 195.446 31.2899C195.392 31.2398 195.348 31.1794 195.318 31.1122C195.287 31.045 195.27 30.9724 195.268 30.8986ZM195.366 32.2438H196.316L196.28 38.7544H195.33L195.366 32.2438Z" fill="#005C9A"/>
<path d="M203.768 38.7813V35.952H199.77V38.7813H198.82L198.843 32.2707H199.793V35.0462H203.786V32.2707H204.736V38.7813H203.768Z" fill="#005C9A"/>
<path d="M209.724 38.7992H208.769L208.796 33.1809H206.412V32.2841H212.126V33.1809H209.746L209.724 38.7992Z" fill="#005C9A"/>
<path d="M219.658 34.1315C219.859 34.6642 219.898 35.2446 219.77 35.7995H214.393C214.393 37.2029 215.414 38.0414 216.835 38.0414C217.635 38.0443 218.417 37.8017 219.076 37.3464L219.582 37.9204C218.796 38.5489 217.823 38.8947 216.817 38.9023C214.8 38.8799 213.411 37.5213 213.42 35.5574C213.404 35.1164 213.479 34.6769 213.639 34.266C213.8 33.8551 214.043 33.4817 214.354 33.1688C214.665 32.856 215.037 32.6105 215.447 32.4475C215.857 32.2845 216.296 32.2075 216.736 32.2213C217.361 32.1967 217.978 32.3674 218.502 32.7097C219.026 33.052 219.43 33.5489 219.658 34.1315ZM214.424 35.1404H218.905C218.908 34.8851 218.859 34.6321 218.762 34.396C218.601 33.9895 218.319 33.6424 217.954 33.4017C217.59 33.1611 217.16 33.0386 216.723 33.0508C216.142 33.0276 215.576 33.2336 215.146 33.6245C214.716 34.0155 214.456 34.5599 214.424 35.1404Z" fill="#005C9A"/>
<path d="M228.922 35.6067C228.929 36.0406 228.851 36.4718 228.69 36.8749C228.529 37.2779 228.29 37.6449 227.985 37.9543C227.681 38.2637 227.318 38.5092 226.918 38.6767C226.518 38.8441 226.089 38.93 225.655 38.9293C225.164 38.9334 224.682 38.8041 224.259 38.5554C223.836 38.3067 223.488 37.9477 223.253 37.5169V41.2385H222.271L222.303 32.329H222.98L223.011 33.8042C223.27 33.3287 223.653 32.9327 224.119 32.6586C224.586 32.3845 225.118 32.2426 225.659 32.2483C226.095 32.2493 226.527 32.3376 226.928 32.5079C227.33 32.6783 227.693 32.9272 227.997 33.2401C228.301 33.553 228.54 33.9236 228.698 34.33C228.857 34.7364 228.933 35.1705 228.922 35.6067ZM223.195 35.6067C223.202 36.0772 223.347 36.5352 223.614 36.9232C223.88 37.3112 224.254 37.6119 224.691 37.7877C225.127 37.9635 225.605 38.0065 226.066 37.9114C226.526 37.8162 226.949 37.5872 227.28 37.2529C227.611 36.9186 227.836 36.494 227.926 36.0323C228.017 35.5705 227.97 35.0923 227.79 34.6574C227.61 34.2226 227.306 33.8505 226.916 33.5878C226.526 33.3252 226.067 33.1836 225.597 33.1809C225.281 33.1803 224.968 33.2422 224.676 33.3631C224.384 33.4839 224.118 33.6614 223.895 33.8851C223.672 34.1089 223.495 34.3746 223.375 34.667C223.255 34.9593 223.193 35.2726 223.195 35.5888V35.6067Z" fill="#005C9A"/>
<path d="M235.885 38.8844V36.0596H231.888V38.8844H230.938V32.3693H231.888V35.1449H235.885V32.3693H236.835V38.8799L235.885 38.8844Z" fill="#005C9A"/>
<path d="M245.125 34.2122C245.331 34.744 245.37 35.3257 245.237 35.8802H239.86C239.86 37.2881 240.881 38.1221 242.297 38.1221C243.098 38.1242 243.88 37.8801 244.538 37.4227L245.044 38.0011C244.261 38.6301 243.288 38.9747 242.284 38.9786C240.263 38.9786 238.878 37.602 238.883 35.6336C238.868 35.193 238.943 34.754 239.104 34.3438C239.266 33.9335 239.509 33.5606 239.82 33.248C240.13 32.9354 240.502 32.6899 240.911 32.5264C241.32 32.3629 241.758 32.2851 242.199 32.2976C242.825 32.271 243.444 32.4413 243.969 32.7847C244.494 33.1281 244.898 33.6273 245.125 34.2122ZM239.891 35.2255H244.372C244.376 34.9721 244.329 34.7205 244.233 34.4857C244.073 34.0792 243.791 33.7321 243.426 33.4914C243.061 33.2508 242.631 33.1283 242.194 33.1405C241.612 33.1124 241.041 33.3156 240.607 33.7061C240.173 34.0966 239.911 34.6426 239.878 35.2255H239.891Z" fill="#005C9A"/>
<path d="M249.768 38.9293H248.818V33.3154H246.434V32.4186H252.147V33.3154H249.768V38.9293Z" fill="#005C9A"/>
<path d="M253.465 35.5036V34.8669H256.691V35.5081L253.465 35.5036Z" fill="#005C9A"/>
<path d="M264.449 38.9786V34.0463L262.048 36.7367L259.659 34.0105V38.9428H258.709V32.4321H259.283L262.043 35.5709L264.826 32.4321H265.4V38.9428L264.449 38.9786Z" fill="#005C9A"/>
<path d="M273.357 39.01L273.322 37.5348C273.062 38.0094 272.677 38.404 272.21 38.6759C271.742 38.9477 271.209 39.0865 270.669 39.0773C269.783 39.0773 268.934 38.7253 268.308 38.0989C267.682 37.4724 267.33 36.6227 267.33 35.7368C267.33 34.8508 267.682 34.0011 268.308 33.3747C268.934 32.7482 269.783 32.3963 270.669 32.3963C271.208 32.3946 271.738 32.5387 272.203 32.8133C272.667 33.088 273.049 33.483 273.308 33.9567L273.353 32.4949H274.03V39.0055L273.357 39.01ZM273.147 35.7502C273.141 35.2793 272.997 34.8204 272.732 34.4313C272.467 34.0421 272.093 33.7399 271.657 33.5628C271.221 33.3856 270.742 33.3413 270.281 33.4355C269.82 33.5296 269.397 33.758 269.065 34.0919C268.733 34.4259 268.507 34.8505 268.415 35.3125C268.324 35.7744 268.371 36.2532 268.55 36.6885C268.73 37.1239 269.034 37.4965 269.424 37.7595C269.815 38.0226 270.274 38.1644 270.745 38.167C271.061 38.1676 271.375 38.1054 271.667 37.9839C271.959 37.8625 272.225 37.6842 272.448 37.4594C272.671 37.2346 272.847 36.9678 272.966 36.6744C273.085 36.381 273.145 36.0669 273.142 35.7502H273.147Z" fill="#005C9A"/>
<path d="M277.39 39.01H276.449L276.494 32.5083H281.504V33.4051H277.444L277.39 39.01Z" fill="#005C9A"/>
<path d="M288.643 39.0593L288.594 37.5886C288.334 38.0607 287.951 38.4532 287.485 38.7241C287.019 38.995 286.489 39.1341 285.95 39.1266C285.064 39.1266 284.215 38.7746 283.589 38.1482C282.963 37.5217 282.611 36.672 282.611 35.7861C282.611 34.9001 282.963 34.0504 283.589 33.424C284.215 32.7975 285.064 32.4456 285.95 32.4456C286.489 32.4439 287.019 32.588 287.484 32.8627C287.949 33.1373 288.33 33.5323 288.589 34.006L288.634 32.5487H289.311V39.0593H288.643ZM288.432 35.804C288.428 35.3329 288.285 34.8736 288.02 34.4838C287.756 34.094 287.382 33.7912 286.946 33.6134C286.51 33.4355 286.031 33.3906 285.569 33.4842C285.108 33.5779 284.684 33.8059 284.352 34.1397C284.02 34.4735 283.793 34.8981 283.701 35.3602C283.61 35.8223 283.656 36.3012 283.836 36.7368C284.015 37.1725 284.319 37.5453 284.71 37.8086C285.1 38.0718 285.56 38.2137 286.031 38.2164C286.347 38.2182 286.661 38.1569 286.954 38.0362C287.247 37.9155 287.513 37.7377 287.736 37.5133C287.96 37.2888 288.136 37.022 288.256 36.7286C288.375 36.4352 288.435 36.1209 288.432 35.804Z" fill="#005C9A"/>
<path d="M296.875 37.2164C296.875 38.5212 295.737 39.1535 294.24 39.149H294.016C292.744 39.149 291.596 38.5167 291.211 37.8397L291.731 37.2837C292.004 37.6172 292.35 37.8831 292.742 38.0604C293.135 38.2378 293.563 38.3218 293.994 38.306H294.2C295.163 38.306 295.907 37.9338 295.912 37.1133C295.912 36.4586 295.549 36.0282 294.523 36.0147H293.375V35.387H294.428C295.325 35.387 295.616 34.9386 295.616 34.4005C295.616 33.6965 294.957 33.3334 294.137 33.3289H293.98C293.597 33.3246 293.217 33.4023 292.866 33.557C292.515 33.7117 292.201 33.9397 291.946 34.2257L291.426 33.6607C291.752 33.2857 292.155 32.9855 292.607 32.7804C293.06 32.5754 293.551 32.4703 294.048 32.4724H294.218C295.491 32.4724 296.571 33.1181 296.566 34.2257C296.588 34.5416 296.503 34.8556 296.325 35.1175C296.147 35.3793 295.886 35.5737 295.585 35.6695C295.953 35.7214 296.289 35.9084 296.528 36.1943C296.766 36.4801 296.89 36.8444 296.875 37.2164Z" fill="#005C9A"/>
<path d="M303.872 39.1087V34.1764L299.525 39.1087H298.951L298.974 32.598H299.924V37.5303L304.275 32.598H304.835L304.813 39.1131L303.872 39.1087Z" fill="#005C9A"/>
<path d="M312.174 39.1355V36.3106H308.177V39.1355H307.227V32.6249H308.177V35.3959H312.169V32.6249H313.119V39.14L312.174 39.1355Z" fill="#005C9A"/>
<path d="M315.635 31.2932C315.625 31.1752 315.651 31.057 315.709 30.9541C315.768 30.8511 315.856 30.7682 315.962 30.7162C316.068 30.6642 316.188 30.6455 316.305 30.6627C316.422 30.6798 316.531 30.732 316.618 30.8123C316.705 30.8926 316.766 30.9973 316.792 31.1127C316.818 31.228 316.809 31.3487 316.766 31.4589C316.723 31.5691 316.647 31.6636 316.549 31.73C316.451 31.7965 316.336 31.8318 316.217 31.8313C316.144 31.8349 316.07 31.8238 316.001 31.7986C315.931 31.7734 315.868 31.7346 315.813 31.6845C315.759 31.6344 315.715 31.574 315.685 31.5068C315.654 31.4396 315.637 31.367 315.635 31.2932ZM315.733 32.6384H316.683V39.149H315.729L315.733 32.6384Z" fill="#005C9A"/>
<path d="M322.62 32.6563C324.103 32.6563 324.713 33.3827 324.708 34.3467C324.73 34.6574 324.646 34.9662 324.47 35.2232C324.295 35.4803 324.037 35.6707 323.74 35.7637C324.106 35.8248 324.436 36.0179 324.668 36.3064C324.9 36.5949 325.018 36.9586 325 37.3285C325 38.5392 324.287 39.1759 322.625 39.1714H319.188L319.21 32.6608L322.62 32.6563ZM322.62 38.3643C323.651 38.3643 324.014 37.9159 324.018 37.2613C324.023 36.6066 323.655 36.1672 322.629 36.1627L320.115 36.1403V38.3554L322.62 38.3643ZM320.138 35.4229H322.557C323.454 35.4229 323.745 34.9745 323.745 34.4499C323.745 33.9253 323.449 33.4589 322.548 33.4544H320.142L320.138 35.4229Z" fill="#005C9A"/>
<path d="M199.098 10.6C202.683 10.6 205.295 12.546 205.295 15.8103C205.295 19.0746 202.705 21.0161 199.098 21.0161H196.203V24.787H194.621V10.6H199.098ZM199.201 19.5364C201.652 19.5364 203.799 18.4423 203.799 15.8103C203.799 13.1782 201.652 12.0797 199.201 12.0797H196.203V19.5364H199.201Z" fill="#005C9A"/>
<path d="M222.151 16.8819V18.384H215.205V23.3163H222.599V24.796H213.637V10.6H222.599V12.0797H215.205V16.8819H222.151Z" fill="#005C9A"/>
<path d="M237.829 20.2852C236.875 18.8504 236.512 18.3213 235.073 18.3213H232.765V24.787H231.184V10.6H232.765V16.8236H234.849C236.31 16.8236 236.642 16.317 237.605 14.8552L240.339 10.6H242.131L238.994 15.4022C238.161 16.6398 237.695 17.2272 237.09 17.5097C237.838 17.7518 238.322 18.3437 239.214 19.7516L242.476 24.8005H240.684L237.829 20.2852Z" fill="#005C9A"/>
<path d="M251.181 24.787H249.438L255.312 10.6H256.209L262.061 24.787H260.318L255.743 13.5773L251.181 24.787Z" fill="#005C9A"/>
<path d="M270.728 24.787H268.984L274.859 10.6H275.756L281.604 24.787H279.86L278.323 21.0161H272.265L270.728 24.787ZM272.834 19.5364H277.763L275.29 13.519L272.834 19.5364Z" fill="#005C9A"/>
<path d="M301.841 24.787V13.6401L296.553 20.3659L291.265 13.6401V24.787H289.688V10.6H290.584L296.557 18.2226L302.531 10.6H303.427V24.787H301.841Z" fill="#005C9A"/>
<path d="M313.424 24.787H311.686L317.556 10.6H318.452L324.305 24.787H322.562L321.02 21.0161H314.966L313.424 24.787ZM315.53 19.5364H320.46L317.991 13.519L315.53 19.5364Z" fill="#005C9A"/>
<path d="M182.935 6.62274H181.703V44.3279H182.935V6.62274Z" fill="#005C9A"/>
</g>
<defs>
<clipPath id="clip0_1709_841">
<rect width="325" height="50" fill="white"/>
</clipPath>
</defs>
</svg>
