<svg width="24" height="24" viewBox="0 0 24 24" fill="none" xmlns="http://www.w3.org/2000/svg">
  <path d="M20.1861 15.9319V18.3688C20.1871 18.5951 20.1406 18.819 20.0498 19.0263C19.959 19.2335 19.8258 19.4196 19.6588 19.5726C19.4918 19.7255 19.2946 19.8419 19.0799 19.9144C18.8652 19.9869 18.6377 20.0138 18.4119 19.9934C15.9075 19.7218 13.5019 18.8677 11.3883 17.4997C9.42189 16.2525 7.7547 14.5885 6.50516 12.6258C5.12971 10.5067 4.27375 8.09399 4.00661 5.58316C3.98627 5.35853 4.01301 5.13213 4.08514 4.91839C4.15727 4.70464 4.2732 4.50823 4.42555 4.34165C4.5779 4.17507 4.76334 4.04198 4.97005 3.95085C5.17675 3.85972 5.40021 3.81255 5.62619 3.81233H8.06777C8.46274 3.80845 8.84565 3.94805 9.14512 4.20511C9.4446 4.46217 9.64021 4.81914 9.69549 5.2095C9.79854 5.98936 9.98966 6.75509 10.2652 7.49207C10.3747 7.78282 10.3984 8.0988 10.3335 8.40257C10.2686 8.70634 10.1178 8.98518 9.89895 9.20604L8.86535 10.2377C10.0239 12.2713 11.711 13.9551 13.7485 15.1115L14.7821 14.0799C15.0034 13.8615 15.2828 13.711 15.5871 13.6462C15.8915 13.5814 16.2081 13.605 16.4994 13.7143C17.2377 13.9893 18.0049 14.1801 18.7863 14.2829C19.1816 14.3386 19.5427 14.5374 19.8008 14.8414C20.0589 15.1454 20.196 15.5335 20.1861 15.9319Z" fill="#005C9A" />
  <path d="M14.5293 6.24922C15.3242 6.40401 16.0548 6.79205 16.6275 7.36365C17.2002 7.93525 17.5889 8.66441 17.744 9.45782M14.5293 3C16.1808 3.18312 17.7209 3.9213 18.8967 5.09331C20.0724 6.26533 20.8139 7.80154 20.9995 9.4497" stroke="#005C9A" stroke-width="2" stroke-linecap="round" stroke-linejoin="round" />
</svg>
