<svg width="22" height="22" viewBox="0 0 22 22" fill="none" xmlns="http://www.w3.org/2000/svg">
  <path fill-rule="evenodd" clip-rule="evenodd" d="M10.9998 20.9111C5.53492 20.9111 1.0889 16.4653 1.0889 11C1.0889 5.53534 5.53492 1.08912 10.9998 1.08912C12.7959 1.08912 14.531 1.56734 16.0588 2.47667L15.5812 2.954C15.4679 3.06756 15.4101 3.22556 15.4236 3.38512L15.6145 5.61556L15.2705 5.95889C14.1179 4.98111 12.6267 4.38978 10.9998 4.38978C7.35538 4.38978 4.38958 7.35511 4.38958 10.9996C4.38958 14.6447 7.35538 17.6102 10.9998 17.6102C14.645 17.6102 17.6101 14.6447 17.6101 10.9996C17.6101 9.37289 17.0192 7.882 16.0405 6.72911L16.3839 6.38556L18.6148 6.576C18.6297 6.57734 18.6454 6.57756 18.6608 6.57756C18.8043 6.57756 18.9432 6.52111 19.0457 6.41823L19.523 5.94067C20.433 7.46867 20.911 9.20445 20.911 11C20.911 16.4653 16.4648 20.9111 10.9998 20.9111ZM12.1363 9.09378L14.4981 6.732C13.545 5.94956 12.3265 5.47912 10.9998 5.47912C7.9556 5.47912 5.4787 7.95578 5.4787 11C5.4787 14.0444 7.9556 16.5216 10.9998 16.5216C14.0443 16.5216 16.5212 14.0447 16.5212 11C16.5212 9.67356 16.051 8.45511 15.2685 7.50178L12.9065 9.864C13.1056 10.1962 13.2205 10.5849 13.2205 11C13.2205 12.2247 12.2243 13.2207 10.9998 13.2207C9.77539 13.2207 8.77939 12.2247 8.77939 11C8.77939 9.77578 9.77539 8.77956 10.9998 8.77956C11.415 8.77956 11.8036 8.89445 12.1363 9.09378ZM12.1314 11C12.1314 10.8909 12.1154 10.7842 12.0863 10.6842L11.385 11.3849C11.2785 11.4913 11.1394 11.5447 11.0001 11.5447C10.8607 11.5447 10.7214 11.4913 10.6152 11.3849C10.4025 11.1727 10.4025 10.8278 10.6152 10.6149L11.3161 9.914C11.2158 9.88489 11.1098 9.86867 11.0001 9.86867C10.3761 9.86867 9.86872 10.3762 9.86872 11C9.86872 11.624 10.3761 12.1316 11.0001 12.1316C11.6241 12.1316 12.1314 11.624 12.1314 11ZM18.4088 2.82112L18.3179 1.75778L17.2999 2.77534C17.2994 2.776 17.2994 2.77645 17.299 2.77689L16.5303 3.54534L16.6212 4.60867L18.4088 2.82112ZM20.2423 3.68178L19.179 3.59156L17.3914 5.37889L18.4548 5.47L19.2237 4.70089L19.2239 4.70067L20.2423 3.68178ZM20.3155 5.14956L21.8406 3.62467C21.9904 3.47467 22.0397 3.25178 21.9668 3.05267C21.8941 2.85356 21.7128 2.71489 21.5015 2.69667L20.1859 2.58445L20.5332 2.23667C20.7461 2.02423 20.7461 1.67956 20.5332 1.46645C20.3208 1.254 19.9757 1.254 19.763 1.46645L19.4157 1.81445L19.3034 0.498227C19.2854 0.287116 19.1466 0.105783 18.9472 0.0331161C18.7481 -0.0397727 18.5252 0.010005 18.3759 0.159338L16.8505 1.68445C15.0983 0.581338 13.0859 5.03905e-06 10.9998 5.03905e-06C8.0616 5.03905e-06 5.29936 1.14445 3.2218 3.22223C1.14378 5.29978 0 8.062 0 11C0 13.9387 1.14378 16.7009 3.2218 18.7784C5.29936 20.856 8.0616 22 10.9998 22C13.9381 22 16.7003 20.856 18.7781 18.7784C20.8561 16.7009 21.9999 13.9387 21.9999 11C21.9999 8.91422 21.4188 6.90111 20.3155 5.14956Z" fill="#005C9A" />
</svg>
