<svg width="21" height="21" viewBox="0 0 21 21" fill="none" xmlns="http://www.w3.org/2000/svg">
  <g clip-path="url(#clip0_2091_1046)">
    <path d="M10.5034 0C6.11977 0 4.83772 0.00452346 4.58852 0.0252021C3.68892 0.100001 3.12913 0.241682 2.51928 0.5454C2.04929 0.778843 1.67863 1.04944 1.31281 1.42877C0.646589 2.12053 0.242818 2.97159 0.0966536 3.98323C0.0255901 4.47435 0.00491702 4.57451 0.000717814 7.08309C-0.000897267 7.91929 0.000717814 9.01978 0.000717814 10.4959C0.000717814 14.8772 0.00556306 16.1583 0.0265591 16.4071C0.0992378 17.2827 0.23652 17.8336 0.527234 18.4362C1.08282 19.5897 2.14393 20.4556 3.394 20.7787C3.82684 20.8901 4.30491 20.9515 4.91864 20.9806C5.17867 20.9919 7.82901 21 10.481 21C13.1329 21 15.7849 20.9968 16.0385 20.9838C16.7491 20.9504 17.1618 20.895 17.618 20.7771C18.8762 20.4523 19.9179 19.5993 20.4848 18.4297C20.7699 17.8417 20.9144 17.2698 20.9798 16.4399C20.994 16.2589 21 13.3741 21 10.4931C21 7.61169 20.9935 4.73219 20.9793 4.55125C20.9131 3.70794 20.7686 3.1409 20.4743 2.54154C20.2328 2.0509 19.9647 1.6845 19.5755 1.30986C18.8809 0.646209 18.0313 0.242328 17.019 0.0962851C16.5285 0.0253637 16.4308 0.00436191 13.9209 0H10.5034Z" fill="url(#paint0_radial_2091_1046)" />
    <path d="M10.5034 0C6.11977 0 4.83772 0.00452346 4.58852 0.0252021C3.68892 0.100001 3.12913 0.241682 2.51928 0.5454C2.04929 0.778843 1.67863 1.04944 1.31281 1.42877C0.646589 2.12053 0.242818 2.97159 0.0966536 3.98323C0.0255901 4.47435 0.00491702 4.57451 0.000717814 7.08309C-0.000897267 7.91929 0.000717814 9.01978 0.000717814 10.4959C0.000717814 14.8772 0.00556306 16.1583 0.0265591 16.4071C0.0992378 17.2827 0.23652 17.8336 0.527234 18.4362C1.08282 19.5897 2.14393 20.4556 3.394 20.7787C3.82684 20.8901 4.30491 20.9515 4.91864 20.9806C5.17867 20.9919 7.82901 21 10.481 21C13.1329 21 15.7849 20.9968 16.0385 20.9838C16.7491 20.9504 17.1618 20.895 17.618 20.7771C18.8762 20.4523 19.9179 19.5993 20.4848 18.4297C20.7699 17.8417 20.9144 17.2698 20.9798 16.4399C20.994 16.2589 21 13.3741 21 10.4931C21 7.61169 20.9935 4.73219 20.9793 4.55125C20.9131 3.70794 20.7686 3.1409 20.4743 2.54154C20.2328 2.0509 19.9647 1.6845 19.5755 1.30986C18.8809 0.646209 18.0313 0.242328 17.019 0.0962851C16.5285 0.0253637 16.4308 0.00436191 13.9209 0H10.5034Z" fill="url(#paint1_radial_2091_1046)" />
    <path d="M5.52347 3.50443L5.52323 3.50453C5.06518 3.6824 4.6859 3.91478 4.30081 4.30001L4.30061 4.30021C3.91526 4.68527 3.68276 5.06466 3.50415 5.52295L3.50414 5.52297C3.33115 5.96678 3.20752 6.48455 3.17192 7.27505L5.52347 3.50443ZM5.52347 3.50443C5.96731 3.33182 6.48516 3.2083 7.27631 3.17206L5.52347 3.50443ZM4.30019 16.699L4.30045 16.6993C4.68556 17.0848 5.06491 17.3178 5.52235 17.4955L5.52238 17.4955C5.96662 17.6682 6.48468 17.7917 7.27565 17.8279L4.30019 16.699ZM4.30019 16.699C3.91496 16.314 3.68255 15.9347 3.50449 15.4765M4.30019 16.699L3.50449 15.4765M15.4775 17.4955L15.4775 17.4955C15.9349 17.3178 16.3136 17.085 16.6989 16.6993L16.6992 16.699C17.0844 16.3141 17.3169 15.9348 17.4955 15.4767C17.6672 15.0323 17.7908 14.5139 17.8279 13.7237C17.8652 12.895 17.875 12.6356 17.875 10.5C17.875 8.36463 17.8652 8.10444 17.828 7.2759C17.7908 6.48514 17.6672 5.96691 17.4955 5.52254C17.3169 5.06435 17.0844 4.68512 16.6992 4.30021L16.6991 4.30008C16.3133 3.91433 15.9353 3.68215 15.4774 3.50463L15.4773 3.50459C15.0318 3.3318 14.5135 3.2083 13.7224 3.17206L15.4775 17.4955ZM15.4775 17.4955C15.0333 17.6682 14.5147 17.7917 13.7235 17.8279C12.8948 17.8657 12.6361 17.875 10.4998 17.875C8.36389 17.875 8.10439 17.8657 7.2758 17.8279L15.4775 17.4955ZM13.7056 3.58994L13.7058 3.58994C14.5288 3.62758 14.9988 3.76746 15.326 3.89452L15.3261 3.89454C15.7576 4.06214 16.0786 4.27085 16.4036 4.59605C16.729 4.9214 16.9375 5.24277 17.1053 5.67384L17.1054 5.67406C17.2325 6.00102 17.3726 6.47119 17.41 7.29429L17.41 7.29432C17.4483 8.13595 17.4565 8.39431 17.4565 10.4982C17.4565 12.6021 17.4483 12.8604 17.41 13.7021L17.41 13.7022C17.3724 14.525 17.2326 14.9951 17.1054 15.3222C17.1054 15.3222 17.1054 15.3223 17.1054 15.3223L16.6394 15.1412L13.7056 3.58994ZM13.7056 3.58994C12.8636 3.55167 12.6053 3.54414 10.5007 3.54414C10.43 3.54414 10.3612 3.54412 10.2943 3.54409V3.54161L9.79372 3.54217C8.32118 3.54382 8.03194 3.55374 7.29599 3.58698L7.2956 3.587M13.7056 3.58994L7.2956 3.587M7.2956 3.587C6.47328 3.62477 6.00283 3.76415 5.67486 3.89205L7.2956 3.587ZM3.50449 15.4765C3.33199 15.0326 3.20848 14.5147 3.17207 13.7237L3.50449 15.4765ZM7.27645 3.17205C8.10473 3.13436 8.36451 3.12501 10.4983 3.125L7.27645 3.17205ZM10.5007 3.125C12.6352 3.12501 12.894 3.13436 13.7222 3.17205L10.5007 3.125ZM15.3265 17.1007C15.7582 16.9331 16.0787 16.7243 16.4036 16.3994L5.67454 3.89218C5.24363 4.05996 4.92233 4.26848 4.59706 4.59375C4.27189 4.91891 4.06284 5.24032 3.89521 5.67191L3.8952 5.67194C3.76814 5.99916 3.62825 6.46924 3.59062 7.29222L3.59061 7.29235C3.55235 8.13416 3.54481 8.39136 3.54481 10.4962C3.54481 12.6011 3.55234 12.8596 3.59061 13.7014L3.59061 13.7014C3.62807 14.5245 3.76816 14.9947 3.89527 15.3217L3.89533 15.3218C4.06327 15.7534 4.27194 16.0741 4.59706 16.3992C4.92242 16.7246 5.24389 16.9332 5.67522 17.1007L5.67536 17.1008C6.00262 17.2278 6.4726 17.3676 7.2955 17.4056L7.29585 17.4056C8.13749 17.4439 8.39569 17.4521 10.5007 17.4521C12.6056 17.4521 12.864 17.4439 13.7056 17.4056L13.7058 17.4056C14.5279 17.368 14.9986 17.2287 15.3265 17.1007ZM14.7216 5.85172C14.9592 5.86078 15.1494 6.05659 15.1494 6.29639C15.1494 6.54196 14.95 6.74139 14.7044 6.74139C14.4588 6.74139 14.2594 6.54196 14.2594 6.29639C14.2594 6.05094 14.4585 5.85172 14.7044 5.85172H14.7216ZM3.125 10.5C3.125 8.36427 3.13483 8.10415 3.17191 7.2752L3.17206 13.7235C3.13451 12.8948 3.125 12.6359 3.125 10.5ZM6.95656 10.5C6.95656 8.54276 8.54347 6.95586 10.5007 6.95586C12.4579 6.95586 14.0443 8.54266 14.0443 10.5C14.0443 12.4572 12.458 14.0433 10.5007 14.0433C8.54334 14.0433 6.95656 12.4571 6.95656 10.5ZM13.6258 10.5C13.6258 8.77401 12.2265 7.375 10.5007 7.375C8.77477 7.375 7.37571 8.77403 7.37571 10.5C7.37571 12.2258 8.77474 13.625 10.5007 13.625C12.2265 13.625 13.6258 12.2258 13.6258 10.5Z" fill="white" stroke="white" />
  </g>
  <defs>
    <radialGradient id="paint0_radial_2091_1046" cx="0" cy="0" r="1" gradientUnits="userSpaceOnUse" gradientTransform="translate(5.57815 22.6174) rotate(-90) scale(20.8126 19.3573)">
      <stop stop-color="#FFDD55" />
      <stop offset="0.1" stop-color="#FFDD55" />
      <stop offset="0.5" stop-color="#FF543E" />
      <stop offset="1" stop-color="#C837AB" />
    </radialGradient>
    <radialGradient id="paint1_radial_2091_1046" cx="0" cy="0" r="1" gradientUnits="userSpaceOnUse" gradientTransform="translate(-3.51761 1.5128) rotate(78.6806) scale(9.3033 38.3486)">
      <stop stop-color="#3771C8" />
      <stop offset="0.128" stop-color="#3771C8" />
      <stop offset="1" stop-color="#6600FF" stop-opacity="0" />
    </radialGradient>
    <clipPath id="clip0_2091_1046">
      <rect width="21" height="21" fill="white" />
    </clipPath>
  </defs>
</svg>
