<svg width="24" height="25" viewBox="0 0 24 25" fill="none" xmlns="http://www.w3.org/2000/svg">
<path d="M8 11C8 10.4477 8.44772 10 9 10H15C15.5523 10 16 10.4477 16 11V22C16 22.824 15.0592 23.2944 14.4 22.8L12.6 21.45C12.2444 21.1833 11.7556 21.1833 11.4 21.45L9.6 22.8C8.94076 23.2944 8 22.824 8 22V11Z" fill="#005C9A"/>
<path d="M12.0262 1.00034L12 0.999657L11.9738 1.00034L11.6598 1.00857L11.6336 1.00925L11.6075 1.01131L11.2944 1.03595L11.2683 1.03801L11.2423 1.04142L10.9309 1.08243L10.9049 1.08584L10.8792 1.09062L10.5703 1.14786L10.5445 1.15263L10.5191 1.15874L10.2136 1.23207L10.1882 1.23819L10.1631 1.24563L9.86188 1.33484L9.83677 1.34228L9.81209 1.35102L9.51599 1.45588L9.4913 1.46462L9.46711 1.47464L9.1769 1.59485L9.1527 1.60487L9.12907 1.61614L8.84555 1.75138L8.82191 1.76265L8.7989 1.77514L8.52284 1.92503L8.49983 1.93753L8.4775 1.95121L8.20967 2.11534L8.18734 2.12902L8.16576 2.14385L7.90688 2.32177L7.8853 2.3366L7.86453 2.35254L7.61532 2.54377L7.59454 2.55971L7.57463 2.57672L7.33577 2.78072L7.31586 2.79773L7.29686 2.81576L7.069 3.03199L7.05001 3.05001L7.03199 3.069L6.81576 3.29686L6.79773 3.31586L6.78072 3.33577L6.57672 3.57463L6.55971 3.59454L6.54377 3.61532L6.35254 3.86453L6.3366 3.8853L6.32177 3.90688L6.14385 4.16576L6.12902 4.18734L6.11534 4.20967L5.95121 4.4775L5.93753 4.49983L5.92503 4.52284L5.77514 4.7989L5.76265 4.82191L5.75138 4.84555L5.61614 5.12907L5.60487 5.1527L5.59485 5.1769L5.47464 5.46711L5.46462 5.4913L5.45588 5.51599L5.35102 5.81209L5.34228 5.83677L5.33484 5.86188L5.24563 6.16307L5.23819 6.18818L5.23207 6.21364L5.15874 6.51909L5.15263 6.54455L5.14786 6.57029L5.09062 6.87916L5.08584 6.90491L5.08243 6.93087L5.04142 7.2423L5.03801 7.26826L5.03595 7.29437L5.01131 7.60752L5.00925 7.63363L5.00857 7.65981L5.00034 7.97382L4.99966 8L5.00034 8.02618L5.00857 8.34019L5.00925 8.36637L5.01131 8.39248L5.03595 8.70563L5.03801 8.73174L5.04142 8.7577L5.08243 9.06913L5.08584 9.09509L5.09062 9.12084L5.14786 9.42971L5.15263 9.45545L5.15874 9.48091L5.23207 9.78636L5.23819 9.81182L5.24563 9.83693L5.33484 10.1381L5.34228 10.1632L5.35102 10.1879L5.45588 10.484L5.46462 10.5087L5.47464 10.5329L5.59485 10.8231L5.60487 10.8473L5.61614 10.8709L5.75138 11.1545L5.76265 11.1781L5.77514 11.2011L5.92503 11.4772L5.93753 11.5002L5.95121 11.5225L6.11534 11.7903L6.12902 11.8127L6.14385 11.8342L6.32177 12.0931L6.3366 12.1147L6.35254 12.1355L6.54377 12.3847L6.55971 12.4055L6.57672 12.4254L6.78073 12.6642L6.79773 12.6841L6.81576 12.7031L7.03199 12.931L7.05001 12.95L7.069 12.968L7.29686 13.1842L7.31586 13.2023L7.33577 13.2193L7.57463 13.4233L7.59454 13.4403L7.61532 13.4562L7.86453 13.6475L7.8853 13.6634L7.90688 13.6782L8.16576 13.8561L8.18734 13.871L8.20967 13.8847L8.4775 14.0488L8.49983 14.0625L8.52284 14.075L8.7989 14.2249L8.82191 14.2374L8.84555 14.2486L9.12907 14.3839L9.1527 14.3951L9.1769 14.4052L9.46711 14.5254L9.4913 14.5354L9.51599 14.5441L9.81209 14.649L9.83677 14.6577L9.86188 14.6652L10.1631 14.7544L10.1882 14.7618L10.2136 14.7679L10.5191 14.8413L10.5445 14.8474L10.5703 14.8521L10.8792 14.9094L10.9049 14.9142L10.9309 14.9176L11.2423 14.9586L11.2683 14.962L11.2944 14.964L11.6075 14.9887L11.6336 14.9907L11.6598 14.9914L11.9738 14.9997L12 15.0003L12.0262 14.9997L12.3402 14.9914L12.3664 14.9907L12.3925 14.9887L12.7056 14.964L12.7317 14.962L12.7577 14.9586L13.0691 14.9176L13.0951 14.9142L13.1208 14.9094L13.4297 14.8521L13.4555 14.8474L13.4809 14.8413L13.7864 14.7679L13.8118 14.7618L13.8369 14.7544L14.1381 14.6652L14.1632 14.6577L14.1879 14.649L14.484 14.5441L14.5087 14.5354L14.5329 14.5254L14.8231 14.4052L14.8473 14.3951L14.8709 14.3839L15.1545 14.2486L15.1781 14.2374L15.2011 14.2249L15.4772 14.075L15.5002 14.0625L15.5225 14.0488L15.7903 13.8847L15.8127 13.871L15.8342 13.8562L16.0931 13.6782L16.1147 13.6634L16.1355 13.6475L16.3847 13.4562L16.4055 13.4403L16.4254 13.4233L16.6642 13.2193L16.6841 13.2023L16.7031 13.1842L16.931 12.968L16.95 12.95L16.968 12.931L17.1842 12.7031L17.2023 12.6841L17.2193 12.6642L17.4233 12.4254L17.4403 12.4055L17.4562 12.3847L17.6475 12.1355L17.6634 12.1147L17.6782 12.0931L17.8562 11.8342L17.871 11.8127L17.8847 11.7903L18.0488 11.5225L18.0625 11.5002L18.075 11.4772L18.2249 11.2011L18.2374 11.1781L18.2486 11.1545L18.3839 10.8709L18.3951 10.8473L18.4052 10.8231L18.5254 10.5329L18.5354 10.5087L18.5441 10.484L18.649 10.1879L18.6577 10.1632L18.6652 10.1381L18.7544 9.83693L18.7618 9.81182L18.7679 9.78636L18.8413 9.48091L18.8474 9.45545L18.8521 9.42971L18.9094 9.12084L18.9142 9.09509L18.9176 9.06913L18.9586 8.75769L18.962 8.73173L18.964 8.70563L18.9887 8.39248L18.9907 8.36637L18.9914 8.34019L18.9997 8.02618L19.0003 8L18.9997 7.97382L18.9914 7.65981L18.9907 7.63363L18.9887 7.60752L18.964 7.29437L18.962 7.26827L18.9586 7.24231L18.9176 6.93087L18.9142 6.90491L18.9094 6.87916L18.8521 6.57029L18.8474 6.54455L18.8413 6.51909L18.7679 6.21364L18.7618 6.18818L18.7544 6.16307L18.6652 5.86188L18.6577 5.83677L18.649 5.81209L18.5441 5.51599L18.5354 5.4913L18.5254 5.46711L18.4052 5.1769L18.3951 5.1527L18.3839 5.12907L18.2486 4.84555L18.2374 4.82191L18.2249 4.7989L18.075 4.52284L18.0625 4.49983L18.0488 4.4775L17.8847 4.20967L17.871 4.18734L17.8561 4.16576L17.6782 3.90688L17.6634 3.8853L17.6475 3.86453L17.4562 3.61532L17.4403 3.59454L17.4233 3.57463L17.2193 3.33577L17.2023 3.31586L17.1842 3.29686L16.968 3.069L16.95 3.05001L16.931 3.03199L16.7031 2.81576L16.6841 2.79773L16.6642 2.78073L16.4254 2.57672L16.4055 2.55971L16.3847 2.54377L16.1355 2.35254L16.1147 2.3366L16.0931 2.32177L15.8342 2.14385L15.8127 2.12902L15.7903 2.11534L15.5225 1.95121L15.5002 1.93753L15.4772 1.92503L15.2011 1.77514L15.1781 1.76265L15.1545 1.75138L14.8709 1.61614L14.8473 1.60487L14.8231 1.59485L14.5329 1.47464L14.5087 1.46462L14.484 1.45588L14.1879 1.35102L14.1632 1.34228L14.1381 1.33484L13.8369 1.24563L13.8118 1.23819L13.7864 1.23207L13.4809 1.15874L13.4555 1.15263L13.4297 1.14786L13.1208 1.09062L13.0951 1.08584L13.0691 1.08243L12.7577 1.04142L12.7317 1.03801L12.7056 1.03595L12.3925 1.01131L12.3664 1.00925L12.3402 1.00857L12.0262 1.00034Z" fill="#005C9A" stroke="#F5F5F7" stroke-width="2"/>
</svg>
