<svg width="26" height="34" viewBox="0 0 26 34" fill="none" xmlns="http://www.w3.org/2000/svg">
  <path d="M20.0909 9.90913C19.1506 9.90913 18.2488 9.5356 17.5839 8.8707C16.919 8.20579 16.5455 7.30399 16.5455 6.36368V0.45459H3.54545C2.60514 0.45459 1.70334 0.828128 1.03844 1.49303C0.373538 2.15793 0 3.05973 0 4.00004V30C0 30.9404 0.373538 31.8422 1.03844 32.5071C1.70334 33.172 2.60514 33.5455 3.54545 33.5455H22.4545C23.3949 33.5455 24.2967 33.172 24.9616 32.5071C25.6265 31.8422 26 30.9404 26 30V9.90913H20.0909ZM10.6364 7.5455H13C13.3134 7.5455 13.614 7.67001 13.8357 7.89165C14.0573 8.11328 14.1818 8.41388 14.1818 8.72732C14.1818 9.04075 14.0573 9.34135 13.8357 9.56299C13.614 9.78462 13.3134 9.90913 13 9.90913H10.6364C10.3229 9.90913 10.0223 9.78462 9.80069 9.56299C9.57906 9.34135 9.45455 9.04075 9.45455 8.72732C9.45455 8.41388 9.57906 8.11328 9.80069 7.89165C10.0223 7.67001 10.3229 7.5455 10.6364 7.5455ZM5.90909 27.6364C5.67535 27.6364 5.44686 27.5671 5.25251 27.4372C5.05816 27.3074 4.90668 27.1228 4.81723 26.9069C4.72778 26.6909 4.70438 26.4533 4.74998 26.224C4.79558 25.9948 4.90814 25.7842 5.07342 25.6189C5.2387 25.4536 5.44928 25.3411 5.67853 25.2955C5.90778 25.2499 6.1454 25.2733 6.36135 25.3627C6.5773 25.4522 6.76188 25.6037 6.89174 25.798C7.0216 25.9924 7.09091 26.2208 7.09091 26.4546C7.09091 26.768 6.9664 27.0686 6.74476 27.2903C6.52313 27.5119 6.22253 27.6364 5.90909 27.6364ZM5.90909 21.7273C5.67535 21.7273 5.44686 21.658 5.25251 21.5281C5.05816 21.3983 4.90668 21.2137 4.81723 20.9978C4.72778 20.7818 4.70438 20.5442 4.74998 20.3149C4.79558 20.0857 4.90814 19.8751 5.07342 19.7098C5.2387 19.5445 5.44928 19.432 5.67853 19.3864C5.90778 19.3408 6.1454 19.3642 6.36135 19.4536C6.5773 19.5431 6.76188 19.6946 6.89174 19.8889C7.0216 20.0833 7.09091 20.3118 7.09091 20.5455C7.09091 20.8589 6.9664 21.1595 6.74476 21.3812C6.52313 21.6028 6.22253 21.7273 5.90909 21.7273ZM5.90909 15.8182C5.67535 15.8182 5.44686 15.7489 5.25251 15.6191C5.05816 15.4892 4.90668 15.3046 4.81723 15.0887C4.72778 14.8727 4.70438 14.6351 4.74998 14.4058C4.79558 14.1766 4.90814 13.966 5.07342 13.8007C5.2387 13.6355 5.44928 13.5229 5.67853 13.4773C5.90778 13.4317 6.1454 13.4551 6.36135 13.5445C6.5773 13.634 6.76188 13.7855 6.89174 13.9798C7.0216 14.1742 7.09091 14.4027 7.09091 14.6364C7.09091 14.9498 6.9664 15.2504 6.74476 15.4721C6.52313 15.6937 6.22253 15.8182 5.90909 15.8182ZM5.90909 9.90913C5.67535 9.90913 5.44686 9.83982 5.25251 9.70996C5.05816 9.5801 4.90668 9.39553 4.81723 9.17958C4.72778 8.96363 4.70438 8.72601 4.74998 8.49676C4.79558 8.26751 4.90814 8.05693 5.07342 7.89165C5.2387 7.72637 5.44928 7.61381 5.67853 7.56821C5.90778 7.52261 6.1454 7.54601 6.36135 7.63546C6.5773 7.72491 6.76188 7.87638 6.89174 8.07073C7.0216 8.26508 7.09091 8.49358 7.09091 8.72732C7.09091 9.04075 6.9664 9.34135 6.74476 9.56299C6.52313 9.78462 6.22253 9.90913 5.90909 9.90913ZM20.0909 27.6364H10.6364C10.3229 27.6364 10.0223 27.5119 9.80069 27.2903C9.57906 27.0686 9.45455 26.768 9.45455 26.4546C9.45455 26.1412 9.57906 25.8405 9.80069 25.6189C10.0223 25.3973 10.3229 25.2728 10.6364 25.2728H20.0909C20.4043 25.2728 20.7049 25.3973 20.9266 25.6189C21.1482 25.8405 21.2727 26.1412 21.2727 26.4546C21.2727 26.768 21.1482 27.0686 20.9266 27.2903C20.7049 27.5119 20.4043 27.6364 20.0909 27.6364ZM20.0909 21.7273H10.6364C10.3229 21.7273 10.0223 21.6028 9.80069 21.3812C9.57906 21.1595 9.45455 20.8589 9.45455 20.5455C9.45455 20.2321 9.57906 19.9315 9.80069 19.7098C10.0223 19.4882 10.3229 19.3637 10.6364 19.3637H20.0909C20.4043 19.3637 20.7049 19.4882 20.9266 19.7098C21.1482 19.9315 21.2727 20.2321 21.2727 20.5455C21.2727 20.8589 21.1482 21.1595 20.9266 21.3812C20.7049 21.6028 20.4043 21.7273 20.0909 21.7273ZM20.0909 15.8182H10.6364C10.3229 15.8182 10.0223 15.6937 9.80069 15.4721C9.57906 15.2504 9.45455 14.9498 9.45455 14.6364C9.45455 14.323 9.57906 14.0224 9.80069 13.8007C10.0223 13.5791 10.3229 13.4546 10.6364 13.4546H20.0909C20.4043 13.4546 20.7049 13.5791 20.9266 13.8007C21.1482 14.0224 21.2727 14.323 21.2727 14.6364C21.2727 14.9498 21.1482 15.2504 20.9266 15.4721C20.7049 15.6937 20.4043 15.8182 20.0909 15.8182ZM18.9091 6.36368V1.14004L25.3145 7.5455H20.0909C19.7775 7.5455 19.4769 7.42099 19.2552 7.19935C19.0336 6.97772 18.9091 6.67712 18.9091 6.36368Z" fill="white" />
</svg>
