<svg width="41" height="32" viewBox="0 0 41 32" fill="none" xmlns="http://www.w3.org/2000/svg">
  <path fill-rule="evenodd" clip-rule="evenodd" d="M6.17458 12.231C2.47229 13.832 0 16.961 0 20.5C0.0208947 22.5331 0.808702 24.4875 2.21296 25.9899L1.44728 30.8479C1.41536 31.0498 1.44759 31.2564 1.53964 31.4398C1.63169 31.6233 1.77914 31.7749 1.96215 31.8741C2.14515 31.9733 2.35492 32.0155 2.56323 31.9949C2.77154 31.9743 2.96838 31.892 3.12726 31.7589L6.52721 28.9159C8.19905 29.5722 9.98538 29.9064 11.7875 29.8999C14.6258 29.9309 17.4003 29.0779 19.7077 27.4649C11.807 25.6939 6.15003 19.751 6.15003 13C6.15001 12.742 6.1582 12.4856 6.17458 12.231ZM32.1963 24.5259L37.2577 28.7589C37.4166 28.892 37.6134 28.9743 37.8218 28.9949C38.0301 29.0155 38.2398 28.9734 38.4228 28.8741C38.6058 28.7749 38.7533 28.6233 38.8453 28.4399C38.9374 28.2564 38.9696 28.0498 38.9377 27.8479L37.8123 20.708C39.8292 18.6203 40.9672 15.8687 41 13C41 5.89197 33.7071 0 24.6 0C15.4929 0 8.2 5.89198 8.2 13C8.2 20.108 15.4929 25.9999 24.6 25.9999C27.2078 26.0105 29.7911 25.5093 32.1963 24.5259Z" fill="white" />
</svg>
