<svg width="35" height="35" viewBox="0 0 35 35" fill="none" xmlns="http://www.w3.org/2000/svg">
  <path d="M11.2187 19.2949C11.2187 12.8692 16.46 7.62821 22.8861 7.62821C24.6452 7.62821 26.3145 8.02308 27.8223 8.74103V4.9359C27.8223 2.20769 25.6145 0 22.8861 0H4.93621C2.20783 0 0 2.20769 0 4.9359V30.0641C0 32.7923 2.20783 35 4.93621 35H22.8861C25.6145 35 27.8223 32.7923 27.8223 30.0641V29.8487C26.3145 30.5667 24.6452 30.9615 22.8861 30.9615C16.46 30.9615 11.2187 25.7205 11.2187 19.2949ZM6.7312 5.38462H15.7061C16.4421 5.38462 17.0524 5.99487 17.0524 6.73077C17.0524 7.46667 16.4421 8.07692 15.7061 8.07692H6.7312C5.99526 8.07692 5.38496 7.46667 5.38496 6.73077C5.38496 5.99487 5.99526 5.38462 6.7312 5.38462ZM8.52619 18.8462H6.7312C5.99526 18.8462 5.38496 18.2359 5.38496 17.5C5.38496 16.7641 5.99526 16.1538 6.7312 16.1538H8.52619C9.26213 16.1538 9.87243 16.7641 9.87243 17.5C9.87243 18.2359 9.26213 18.8462 8.52619 18.8462ZM6.7312 13.4615C5.99526 13.4615 5.38496 12.8513 5.38496 12.1154C5.38496 11.3795 5.99526 10.7692 6.7312 10.7692H10.3212C11.0571 10.7692 11.6674 11.3795 11.6674 12.1154C11.6674 12.8513 11.0571 13.4615 10.3212 13.4615H6.7312ZM34.6073 27.3179L30.7768 23.4877C31.4464 22.2313 31.861 20.8187 31.861 19.2967C31.861 14.341 27.842 10.3223 22.8861 10.3223C17.9301 10.3223 13.9111 14.341 13.9111 19.2967C13.9111 24.2523 17.9301 28.271 22.8861 28.271C25.3362 28.271 27.5531 27.2838 29.1721 25.6918L32.7029 29.2223C32.9649 29.4844 33.3096 29.6172 33.6542 29.6172C33.9988 29.6172 34.3435 29.4862 34.6056 29.2223C35.1315 28.6964 35.1315 27.8438 34.6056 27.3179H34.6073ZM27.2856 18.5751L22.4984 22.181C22.2578 22.3623 21.9724 22.4521 21.687 22.4521C21.3998 22.4521 21.1144 22.3605 20.8739 22.1792L18.4812 20.3664C17.887 19.9177 17.7704 19.0741 18.2191 18.4818C18.6697 17.8895 19.5151 17.7728 20.1056 18.2197L21.6888 19.4169L25.6629 16.4231C26.2571 15.9762 27.1007 16.0946 27.5495 16.6869C27.9964 17.281 27.8779 18.1246 27.2856 18.5733V18.5751Z" fill="white" />
</svg>
