<svg width="38" height="38" viewBox="0 0 38 38" fill="none" xmlns="http://www.w3.org/2000/svg">
  <path d="M37.1859 7.65398C36.4712 4.42707 33.343 1.47105 30.1071 0.843187C28.136 0.449101 22.6366 -0.0377552 18.9993 0.00232133C15.3619 -0.0377552 9.86255 0.449101 7.89137 0.843187C4.65556 1.47105 1.52736 4.42707 0.812664 7.65398C0.405961 9.61327 0.00593727 12.2791 0 15.9179C0.00593727 19.5567 0.405961 22.2218 0.812664 24.1811C1.52736 27.408 4.65556 30.364 7.89137 30.9919C8.95563 31.2049 11.0485 31.4446 13.3217 31.6138C13.5793 32.0183 13.8583 32.4487 14.1604 32.9052C15.3664 34.7316 16.2896 36.0044 16.9888 36.8913C18.1525 38.3675 19.8468 38.3675 21.0105 36.8913C21.7096 36.0044 22.6321 34.7316 23.8389 32.9052C24.1409 32.448 24.4192 32.0183 24.6775 31.6138C26.9507 31.4446 29.0436 31.2049 30.1086 30.9919C33.3444 30.364 36.4726 27.408 37.1873 24.1811C37.594 22.2218 37.9941 19.5567 38 15.9179C37.9941 12.2791 37.594 9.61402 37.1873 7.65472L37.1859 7.65398ZM21.0973 26.9501C21.0172 27.4021 20.6075 27.8117 20.1555 27.8919C19.8817 27.9372 19.5084 27.9802 18.9985 27.981C18.4894 27.981 18.1161 27.9379 17.8415 27.8919C17.3895 27.8117 16.9798 27.4021 16.8997 26.9501C16.8544 26.6762 16.8114 26.3029 16.8106 25.7931C16.8106 25.284 16.8537 24.9106 16.8997 24.636C16.9798 24.1841 17.3895 23.7744 17.8415 23.6942C18.1153 23.649 18.4887 23.6059 18.9985 23.6052C19.5076 23.6052 19.8809 23.6482 20.1555 23.6942C20.6075 23.7744 21.0172 24.1841 21.0973 24.636C21.1426 24.9099 21.1857 25.2832 21.1864 25.7931C21.1864 26.3022 21.1434 26.6755 21.0973 26.9501ZM25.6156 14.7943C25.0427 15.6047 24.184 16.3447 22.9134 17.1217C21.3051 18.1132 21.0476 18.5207 21.0476 19.3185V19.6339C21.0476 20.7649 20.1273 21.6852 18.9963 21.6852C17.8652 21.6852 16.945 20.7649 16.945 19.6339V18.9029C16.945 17.9618 17.1802 17.1633 17.6641 16.4619C18.1332 15.7821 18.836 15.178 19.8787 14.5583C21.8002 13.428 22.1519 12.7934 22.1519 11.9511C22.1519 10.8928 21.2502 10.2085 19.8557 10.2085C18.3269 10.2085 17.3316 10.9031 16.8975 12.2739C16.611 13.1779 15.7738 13.7849 14.815 13.7849C14.7615 13.7849 14.7081 13.7827 14.6547 13.779C13.9778 13.73 13.3715 13.379 12.9915 12.8157C12.6152 12.2583 12.5165 11.5733 12.7206 10.9358C13.1882 9.4782 14.0847 8.26551 15.313 7.42836C16.5568 6.58081 18.128 6.13329 19.855 6.13329C21.582 6.13329 23.3134 6.7055 24.5424 7.74452C25.8071 8.81397 26.504 10.2879 26.504 11.8962C26.504 13.0005 26.2138 13.949 25.6156 14.7943Z" fill="white" />
</svg>
