<svg width="43" height="34" viewBox="0 0 43 34" fill="none" xmlns="http://www.w3.org/2000/svg">
  <path fill-rule="evenodd" clip-rule="evenodd" d="M4.89016 3.18071H27.6653C27.6062 3.31824 27.5499 3.45686 27.4963 3.59715C27.3616 3.59273 27.2258 3.58942 27.0905 3.58942C24.437 3.58942 21.9955 4.4963 20.0575 6.01679H5.65982C2.16101 6.01679 2.16101 11.3438 5.65982 11.3438H16.2832C15.8956 12.4914 15.6853 13.7198 15.6853 14.9983C15.6853 21.2974 20.7924 26.4067 27.0905 26.4067C28.6502 26.4067 30.1371 26.0924 31.4909 25.5241V33.9887H4.89016C2.20076 33.9887 0 31.7872 0 29.097V8.07357C0 5.38219 2.20076 3.18071 4.89016 3.18071ZM36.126 0C39.9235 0 43.0016 3.07964 43.0016 6.87838C43.0016 10.1767 40.6805 12.9333 37.5814 13.6021C37.0083 9.24997 33.7922 5.7318 29.5988 4.71114C30.5065 1.97504 33.086 0 36.126 0ZM27.0905 5.94609C32.0872 5.94609 36.1387 9.99944 36.1387 14.9983C36.1387 19.9978 32.0872 24.05 27.0905 24.05C22.0927 24.05 18.0412 19.9978 18.0412 14.9983C18.0412 9.99944 22.0927 5.94609 27.0905 5.94609ZM23.3653 16.6503L25.1299 16.4752C25.3309 17.5886 25.92 18.1901 27.0806 18.1901C27.6597 18.1901 28.0981 18.0669 28.3918 17.8206C28.8037 17.4765 29.0196 16.8684 28.6491 16.415C28.3074 16.003 27.0563 15.7616 26.5582 15.6368C25.1282 15.2789 23.7021 14.6504 23.7021 12.9366C23.7021 11.4818 24.8638 10.6539 26.2137 10.4761V9.20358H27.8V10.4816C29.3095 10.6882 30.3298 11.5851 30.3861 13.1708L28.5713 13.2326C28.4101 12.2655 27.8944 11.9308 26.9392 11.9308C26.3876 11.9308 25.4303 12.096 25.4303 12.8156C25.4303 13.5905 26.7968 13.8297 27.3577 13.9633C28.4321 14.2157 29.6744 14.5173 30.2928 15.5197C30.814 16.3692 30.7494 17.561 30.221 18.3906C29.6744 19.2489 28.7684 19.5786 27.8 19.6808V20.7931H26.2137V19.6625C24.4911 19.4212 23.5696 18.3713 23.3653 16.6503Z" fill="white" />
</svg>
