<svg width="39" height="40" viewBox="0 0 39 40" fill="none" xmlns="http://www.w3.org/2000/svg">
  <path d="M8.02095 24.627H2.09833C1.542 24.6275 1.00864 24.8395 0.615255 25.2163C0.221874 25.5931 0.000605909 26.1041 0 26.637V37.1593C0.000404204 37.6923 0.221607 38.2033 0.615032 38.5802C1.00846 38.957 1.54194 39.1689 2.09833 39.1693H6.49489C7.05122 39.1687 7.58458 38.9568 7.97797 38.58C8.37135 38.2031 8.59262 37.6922 8.59322 37.1593V25.1722C8.59241 25.0273 8.53177 24.8887 8.42453 24.7865C8.3173 24.6843 8.1722 24.627 8.02095 24.627ZM4.86888 35.6397C4.86888 35.7851 4.80859 35.9245 4.70127 36.0273C4.59395 36.1301 4.44839 36.1879 4.29661 36.1879C4.14483 36.1879 3.99928 36.1301 3.89195 36.0273C3.78463 35.9245 3.72434 35.7851 3.72434 35.6397V34.6011C3.72434 34.4557 3.78463 34.3163 3.89195 34.2135C3.99928 34.1106 4.14483 34.0529 4.29661 34.0529C4.44839 34.0529 4.59395 34.1106 4.70127 34.2135C4.80859 34.3163 4.86888 34.4557 4.86888 34.6011V35.6397Z" fill="white" />
  <path d="M35.1254 0.830566H28.9934C28.6788 0.830566 28.4238 1.07886 28.4238 1.38515V22.0895C28.4238 22.3958 28.6788 22.6441 28.9934 22.6441H35.1254C35.44 22.6441 35.695 22.3958 35.695 22.0895V1.38515C35.695 1.07886 35.44 0.830566 35.1254 0.830566Z" fill="white" />
  <path d="M15.8611 7.99015C15.8611 7.84448 15.8011 7.70478 15.6944 7.60178C15.5876 7.49878 15.4427 7.44092 15.2917 7.44092H9.16318C9.01215 7.44092 8.86732 7.49878 8.76053 7.60178C8.65374 7.70478 8.59375 7.84448 8.59375 7.99015V22.1317C8.59431 22.2445 8.63112 22.3544 8.6991 22.4462C8.76709 22.538 8.86291 22.6072 8.97337 22.6443C10.6088 22.0812 13.2213 21.1797 15.8649 20.268L15.8611 7.99015Z" fill="white" />
  <path d="M19.0775 4.79688C18.9264 4.79688 18.7815 4.856 18.6747 4.96124C18.5678 5.06647 18.5078 5.20921 18.5078 5.35804V19.3392L21.9262 18.1279C22.5663 17.8991 23.2546 17.8323 23.9278 17.9338C24.601 18.0352 25.2376 18.3016 25.779 18.7085V5.35804C25.779 5.20921 25.719 5.06647 25.6121 4.96124C25.5053 4.856 25.3604 4.79688 25.2093 4.79688H19.0775Z" fill="white" />
  <path d="M38.8087 26.0152C38.5484 25.355 38.0383 24.8167 37.3828 24.5105C36.7274 24.2042 35.9763 24.1533 35.2835 24.3682L23.0543 28.1661C22.8662 28.215 22.6665 28.1997 22.4885 28.123C22.3105 28.0462 22.1649 27.9125 22.0759 27.7441C21.9868 27.5758 21.9598 27.3829 21.9992 27.1975C22.0386 27.0121 22.1421 26.8454 22.2925 26.7251L25.2977 24.4726C25.8525 24.0565 26.2366 23.4618 26.3811 22.7953C26.5257 22.1288 26.4213 21.4341 26.0866 20.8356C25.752 20.2372 25.209 19.7742 24.5549 19.5298C23.9009 19.2853 23.1787 19.2753 22.5179 19.5016C18.9431 20.755 12.9438 22.8395 9.91602 23.8898C9.91602 23.9073 9.92653 23.9219 9.92653 23.9394V34.7892L19.8048 36.4326C20.1739 36.4942 20.5476 36.5252 20.9221 36.5253C21.9111 36.5255 22.8873 36.3075 23.7771 35.8877L37.2482 29.5575C37.9333 29.2828 38.4803 28.7581 38.772 28.0959C39.0638 27.4337 39.0769 26.6867 38.8087 26.0152Z" fill="white" />
</svg>
