<svg width="32" height="34" viewBox="0 0 32 34" fill="none" xmlns="http://www.w3.org/2000/svg">
  <path d="M3.24055 14.7904L7.20129 16.4428C6.75472 17.5771 6.39849 18.7453 6.13599 19.9365L5.98575 20.6235L11.6639 26.3399L12.3468 26.1922C13.5307 25.9281 14.6919 25.5697 15.8193 25.1204L17.4616 29.1053C17.4777 29.1448 17.5033 29.1797 17.5361 29.2068C17.5689 29.2338 17.6079 29.2523 17.6495 29.2605C17.6912 29.2686 17.7342 29.2663 17.7747 29.2536C17.8152 29.2409 17.8519 29.2183 17.8816 29.1878L20.3639 26.6903C20.769 26.2828 21.0847 25.7943 21.2905 25.2564C21.4963 24.7186 21.5878 24.1432 21.559 23.5676L21.4702 21.9633C26.066 18.5486 30.7164 12.5608 31.9832 2.11061C32.0191 1.8486 31.9944 1.58178 31.911 1.33095C31.8276 1.08012 31.6878 0.852059 31.5024 0.664537C31.317 0.477015 31.0911 0.335101 30.8422 0.249857C30.5934 0.164614 30.3283 0.138343 30.0677 0.173093C19.6844 1.4579 13.7297 6.14024 10.3357 10.7504L8.74461 10.668C8.17372 10.6367 7.60264 10.726 7.06811 10.9302C6.53357 11.1343 6.04742 11.4487 5.6409 11.8532L3.15861 14.3506C3.12422 14.3801 3.09816 14.4181 3.08309 14.4609C3.06802 14.5037 3.06446 14.5498 3.07278 14.5944C3.0811 14.6391 3.101 14.6807 3.13046 14.7151C3.15992 14.7495 3.19791 14.7755 3.24055 14.7904ZM19.1654 8.70298C19.5956 8.27166 20.1432 7.97827 20.739 7.85984C21.3348 7.74141 21.9521 7.80327 22.513 8.03759C23.0739 8.27192 23.5532 8.6682 23.8904 9.17641C24.2276 9.68462 24.4076 10.282 24.4076 10.893C24.4076 11.504 24.2276 12.1014 23.8904 12.6096C23.5532 13.1178 23.0739 13.5141 22.513 13.7484C21.9521 13.9827 21.3348 14.0446 20.739 13.9262C20.1432 13.8077 19.5956 13.5143 19.1654 13.083C18.879 12.7958 18.6516 12.4545 18.4965 12.0787C18.3414 11.7028 18.2616 11.2999 18.2616 10.893C18.2616 10.4861 18.3414 10.0832 18.4965 9.70735C18.6516 9.33153 18.879 8.99022 19.1654 8.70298ZM2.49962 26.7968C1.84236 26.5647 1.13655 26.5079 0.450968 26.6319C0.390036 26.6452 0.326758 26.6427 0.267047 26.6246C0.207335 26.6066 0.15314 26.5737 0.109525 26.5288C0.0554564 26.4747 0.0192509 26.4051 0.00581433 26.3295C-0.00762223 26.2539 0.00235975 26.176 0.0344077 26.1063C0.761681 24.5329 2.69083 21.369 6.18379 23.9249C6.20204 23.9413 6.21663 23.9614 6.22663 23.9839C6.23662 24.0064 6.24179 24.0308 6.24179 24.0554C6.24179 24.0801 6.23662 24.1044 6.22663 24.1269C6.21663 24.1494 6.20204 24.1695 6.18379 24.186C5.71615 24.5565 5.34175 25.0325 5.09084 25.5756C4.83994 26.1187 4.71957 26.7136 4.73949 27.3121C4.74203 27.3823 4.7709 27.449 4.82031 27.4987C4.86972 27.5484 4.93599 27.5775 5.00581 27.5801C5.59819 27.604 6.1879 27.4878 6.72753 27.2408C7.26717 26.9938 7.74168 26.6229 8.11294 26.1578C8.12927 26.1377 8.14985 26.1215 8.17317 26.1104C8.1965 26.0992 8.22199 26.0935 8.24781 26.0935C8.27363 26.0935 8.29912 26.0992 8.32245 26.1104C8.34578 26.1215 8.36635 26.1377 8.38268 26.1578C8.86753 26.7384 10.2026 28.6347 8.72412 30.4657C8.07869 31.2462 7.15389 31.7398 6.14965 31.8398C4.71559 31.9944 2.06599 32.4651 0.983618 33.7087C0.940169 33.7605 0.883561 33.7994 0.819833 33.8214C0.756104 33.8433 0.687645 33.8475 0.621755 33.8334C0.555864 33.8193 0.495015 33.7875 0.445695 33.7413C0.396375 33.6951 0.360435 33.6363 0.341706 33.5712C-0.0407097 32.259 -0.63482 29.3252 2.49962 26.7968Z" fill="white" />
</svg>
