<svg width="30" height="30" viewBox="0 0 30 30" fill="none" xmlns="http://www.w3.org/2000/svg">
  <path d="M28.35 0H1.65C0.75 0 0 0.750877 0 1.65193C0 2.55298 0.6 3.30386 1.5 3.30386V22.5263C1.5 23.2772 2.25 24.0281 3 24.0281H4.5L2.7 27.9326C2.4 28.6835 2.7 29.5846 3.45 29.8849C4.35 30.1853 5.1 29.8849 5.4 29.134L7.8 24.0281H21.75L24 29.134C24.3 29.8849 25.2 30.1853 25.95 29.8849C26.7 29.5846 27 28.6835 26.7 27.9326L25.05 24.0281H27C27.75 24.0281 28.5 23.2772 28.5 22.5263V3.30386C29.4 3.15368 30 2.55298 30 1.65193C30 0.750877 29.25 0 28.35 0ZM6 21.0246C5.1 21.0246 4.5 20.4239 4.5 19.5228C4.5 18.6217 5.1 18.021 6 18.021C6.9 18.021 7.5 18.6217 7.5 19.5228C7.5 20.2737 6.75 21.0246 6 21.0246ZM6 15.0175C5.1 15.0175 4.5 14.4168 4.5 13.5158C4.5 12.6147 5.1 12.014 6 12.014C6.9 12.014 7.5 12.6147 7.5 13.5158C7.5 14.2667 6.75 15.0175 6 15.0175ZM6 9.01052C5.1 9.01052 4.5 8.25965 4.5 7.50877C4.5 6.60772 5.1 6.00702 6 6.00702C6.9 6.00702 7.5 6.60772 7.5 7.50877C7.5 8.25965 6.75 9.01052 6 9.01052ZM24 21.0246H12C11.1 21.0246 10.5 20.4239 10.5 19.5228C10.5 18.6217 11.1 18.021 12 18.021H24C24.9 18.021 25.5 18.6217 25.5 19.5228C25.5 20.2737 24.75 21.0246 24 21.0246ZM24 15.0175H12C11.1 15.0175 10.5 14.4168 10.5 13.5158C10.5 12.6147 11.1 12.014 12 12.014H24C24.9 12.014 25.5 12.6147 25.5 13.5158C25.5 14.2667 24.75 15.0175 24 15.0175ZM24 9.01052H12C11.1 9.01052 10.5 8.25965 10.5 7.50877C10.5 6.60772 11.1 6.00702 12 6.00702H24C24.9 6.00702 25.5 6.60772 25.5 7.50877C25.5 8.25965 24.75 9.01052 24 9.01052Z" fill="white" />
</svg>
