<svg width="40" height="28" viewBox="0 0 40 28" fill="none" xmlns="http://www.w3.org/2000/svg">
  <path fill-rule="evenodd" clip-rule="evenodd" d="M2.66667 4C1.19333 4 0 5.194 0 6.66667C0 10.4973 0 21.5027 0 25.3333C0 26.0407 0.28 26.7187 0.78 27.2187C1.28 27.7193 1.96 28 2.66667 28H33.3333C34.8067 28 36 26.806 36 25.3333H6.66667C5.60667 25.3333 4.58667 24.912 3.84 24.162C3.08667 23.4113 2.66667 22.394 2.66667 21.3333V4ZM4 2.66667V21.3333C4 22.0407 4.28 22.7187 4.78 23.2187C5.28 23.7193 5.96 24 6.66667 24H37.3333C38.04 24 38.72 23.7193 39.22 23.2187C39.72 22.7187 40 22.0407 40 21.3333V2.66667C40 1.95933 39.72 1.28133 39.22 0.781333C38.72 0.280667 38.04 0 37.3333 0H6.66667C5.96 0 5.28 0.280667 4.78 0.781333C4.28 1.28133 4 1.95933 4 2.66667ZM11.5667 2.66667H6.66667V21.3333H11.5667C9.34667 18.856 8 15.584 8 12C8 8.416 9.34667 5.144 11.5667 2.66667ZM32.4333 2.66667C34.6533 5.144 36 8.416 36 12C36 15.584 34.6533 18.856 32.4333 21.3333H37.3333V2.66667H32.4333ZM20.6667 5.56133C19.1133 6.11067 18 7.59333 18 9.33333C18 11.5407 19.7933 13.3333 22 13.3333C22.7333 13.3333 23.3333 13.9307 23.3333 14.6667C23.3333 15.4027 22.7333 16 22 16C21.38 16 20.86 15.5753 20.7067 15.0007C20.5267 14.288 19.8 13.8587 19.0867 14.042C18.3733 14.226 17.94 14.9533 18.1267 15.666C18.46 16.958 19.42 17.998 20.6667 18.4387V18.6667C20.6667 19.4027 21.2667 20 22 20C22.7333 20 23.3333 19.4027 23.3333 18.6667V18.4387C24.8867 17.8893 26 16.4067 26 14.6667C26 12.4593 24.2067 10.6667 22 10.6667C21.2667 10.6667 20.6667 10.0693 20.6667 9.33333C20.6667 8.59733 21.2667 8 22 8C22.62 8 23.1467 8.42467 23.2933 8.99933C23.4733 9.712 24.2 10.1413 24.9133 9.958C25.6267 9.774 26.06 9.04667 25.8733 8.334C25.54 7.042 24.58 6.002 23.3333 5.56133V5.33333C23.3333 4.59733 22.7333 4 22 4C21.2667 4 20.6667 4.59733 20.6667 5.33333V5.56133Z" fill="white" />
</svg>
