<svg width="24" height="17" viewBox="0 0 24 17" fill="none" xmlns="http://www.w3.org/2000/svg">
  <path fill-rule="evenodd" clip-rule="evenodd" d="M2.46817 16.4977C2.04025 16.3662 1.6498 16.1322 1.32977 15.8155C1.00974 15.4988 0.76953 15.1087 0.629397 14.6781C-0.171359 12.4524 -0.40862 3.15852 1.13358 1.32382C1.64685 0.726975 2.37152 0.359514 3.1503 0.301194C7.28753 -0.149963 20.07 -0.0898083 21.538 0.45158C21.9509 0.587433 22.3282 0.81629 22.6415 1.121C22.9548 1.42572 23.196 1.79839 23.3471 2.21109C24.222 4.51199 24.2517 12.8734 23.2285 15.0841C22.9571 15.6595 22.5027 16.1257 21.9384 16.4075C20.3962 17.1895 4.51455 17.1745 2.46817 16.4977ZM9.03733 12.1365L16.4517 8.22652L9.03733 4.28641V12.1365Z" fill="white" />
</svg>
